<svg width="1920" height="800" viewBox="0 0 1920 800" fill="none" xmlns="http://www.w3.org/2000/svg">
<rect width="1920" height="800" fill="#5469EB"/>
<path d="M353.111 382V326.62H373.781C379.865 326.62 384.935 327.868 388.991 330.364C393.099 332.808 396.193 336.136 398.273 340.348C400.353 344.508 401.393 349.136 401.393 354.232C401.393 359.848 400.249 364.736 397.961 368.896C395.673 373.056 392.449 376.28 388.289 378.568C384.181 380.856 379.345 382 373.781 382H353.111ZM388.367 354.232C388.367 351.008 387.795 348.174 386.651 345.73C385.507 343.234 383.843 341.31 381.659 339.958C379.475 338.554 376.849 337.852 373.781 337.852H365.903V370.768H373.781C376.901 370.768 379.527 370.066 381.659 368.662C383.843 367.206 385.507 365.23 386.651 362.734C387.795 360.186 388.367 357.352 388.367 354.232ZM427.509 382.78C424.025 382.78 420.931 382.234 418.227 381.142C415.523 379.998 413.209 378.464 411.285 376.54C409.413 374.616 407.983 372.406 406.995 369.91C406.007 367.362 405.513 364.71 405.513 361.954C405.513 358.002 406.371 354.414 408.087 351.19C409.855 347.914 412.377 345.288 415.653 343.312C418.929 341.284 422.881 340.27 427.509 340.27C432.137 340.27 436.063 341.258 439.287 343.234C442.563 345.21 445.059 347.81 446.775 351.034C448.491 354.206 449.349 357.664 449.349 361.408C449.349 362.136 449.297 362.864 449.193 363.592C449.141 364.268 449.089 364.866 449.037 365.386H418.773C418.929 367.206 419.423 368.74 420.255 369.988C421.139 371.236 422.257 372.198 423.609 372.874C424.961 373.498 426.391 373.81 427.899 373.81C429.771 373.81 431.513 373.368 433.125 372.484C434.789 371.6 435.933 370.404 436.557 368.896L447.165 371.86C446.125 373.992 444.643 375.89 442.719 377.554C440.847 379.166 438.611 380.44 436.011 381.376C433.463 382.312 430.629 382.78 427.509 382.78ZM418.461 357.742H436.245C436.037 356.026 435.543 354.544 434.763 353.296C433.983 351.996 432.943 351.008 431.643 350.332C430.343 349.604 428.913 349.24 427.353 349.24C425.741 349.24 424.285 349.604 422.985 350.332C421.737 351.008 420.723 351.996 419.943 353.296C419.163 354.544 418.669 356.026 418.461 357.742ZM551.364 382.78C547.88 382.78 544.786 382.234 542.082 381.142C539.378 379.998 537.064 378.464 535.14 376.54C533.268 374.616 531.838 372.406 530.85 369.91C529.862 367.362 529.368 364.71 529.368 361.954C529.368 358.002 530.226 354.414 531.942 351.19C533.71 347.914 536.232 345.288 539.508 343.312C542.784 341.284 546.736 340.27 551.364 340.27C555.992 340.27 559.918 341.258 563.142 343.234C566.418 345.21 568.914 347.81 570.63 351.034C572.346 354.206 573.204 357.664 573.204 361.408C573.204 362.136 573.152 362.864 573.048 363.592C572.996 364.268 572.944 364.866 572.892 365.386H542.628C542.784 367.206 543.278 368.74 544.11 369.988C544.994 371.236 546.112 372.198 547.464 372.874C548.816 373.498 550.246 373.81 551.754 373.81C553.626 373.81 555.368 373.368 556.98 372.484C558.644 371.6 559.788 370.404 560.412 368.896L571.02 371.86C569.98 373.992 568.498 375.89 566.574 377.554C564.702 379.166 562.466 380.44 559.866 381.376C557.318 382.312 554.484 382.78 551.364 382.78ZM542.316 357.742H560.1C559.892 356.026 559.398 354.544 558.618 353.296C557.838 351.996 556.798 351.008 555.498 350.332C554.198 349.604 552.768 349.24 551.208 349.24C549.596 349.24 548.14 349.604 546.84 350.332C545.592 351.008 544.578 351.996 543.798 353.296C543.018 354.544 542.524 356.026 542.316 357.742ZM643.6 382H631.12V358.99C631.12 356.338 630.626 354.388 629.638 353.14C628.65 351.892 627.376 351.268 625.816 351.268C624.152 351.268 622.514 351.944 620.902 353.296C619.29 354.648 618.146 356.39 617.47 358.522V382H604.99V358.99C604.99 356.286 604.496 354.336 603.508 353.14C602.52 351.892 601.246 351.268 599.686 351.268C598.074 351.268 596.462 351.944 594.85 353.296C593.238 354.648 592.068 356.39 591.34 358.522V382H578.86V341.05H590.092V347.914C591.6 345.47 593.628 343.598 596.176 342.298C598.776 340.946 601.792 340.27 605.224 340.27C608.604 340.27 611.204 341.076 613.024 342.688C614.844 344.248 616.014 346.094 616.534 348.226C618.094 345.678 620.148 343.728 622.696 342.376C625.296 340.972 628.208 340.27 631.432 340.27C634.032 340.27 636.138 340.764 637.75 341.752C639.362 342.688 640.584 343.936 641.416 345.496C642.248 347.056 642.82 348.746 643.132 350.566C643.444 352.334 643.6 354.076 643.6 355.792V382ZM743.982 382.78C741.382 382.78 738.99 382.234 736.806 381.142C734.674 380.05 732.802 378.542 731.19 376.618C729.63 374.694 728.408 372.432 727.524 369.832C726.692 367.232 726.276 364.424 726.276 361.408C726.276 358.392 726.744 355.61 727.68 353.062C728.616 350.514 729.942 348.278 731.658 346.354C733.426 344.43 735.454 342.948 737.742 341.908C740.082 340.816 742.604 340.27 745.308 340.27C748.376 340.27 751.054 340.946 753.342 342.298C755.63 343.65 757.528 345.47 759.036 347.758V341.05H769.878V398.692H757.398V375.37C754.642 380.31 750.17 382.78 743.982 382.78ZM748.74 372.25C749.936 372.25 751.054 372.016 752.094 371.548C753.186 371.08 754.174 370.43 755.058 369.598C755.942 368.766 756.722 367.804 757.398 366.712V358.054C757.086 357.066 756.618 356.13 755.994 355.246C755.37 354.362 754.642 353.582 753.81 352.906C752.978 352.23 752.094 351.736 751.158 351.424C750.222 351.06 749.286 350.878 748.35 350.878C746.946 350.878 745.672 351.164 744.528 351.736C743.436 352.308 742.474 353.114 741.642 354.154C740.81 355.142 740.16 356.286 739.692 357.586C739.224 358.886 738.99 360.264 738.99 361.72C738.99 363.748 739.406 365.542 740.238 367.102C741.07 368.662 742.214 369.91 743.67 370.846C745.126 371.782 746.816 372.25 748.74 372.25ZM778.041 367.258V341.05H790.521V364.528C790.521 367.024 791.015 368.948 792.003 370.3C792.991 371.6 794.395 372.25 796.215 372.25C797.359 372.25 798.451 372.068 799.491 371.704C800.531 371.288 801.545 370.638 802.533 369.754C803.521 368.87 804.405 367.726 805.185 366.322V341.05H817.665V368.116C817.665 369.364 817.847 370.248 818.211 370.768C818.627 371.236 819.329 371.522 820.317 371.626V382C819.173 382.208 818.159 382.364 817.275 382.468C816.443 382.572 815.689 382.624 815.013 382.624C812.829 382.624 811.087 382.182 809.787 381.298C808.487 380.362 807.681 379.062 807.369 377.398L807.135 374.902C805.263 377.606 802.923 379.608 800.115 380.908C797.359 382.156 794.265 382.78 790.833 382.78C786.673 382.78 783.501 381.454 781.317 378.802C779.133 376.15 778.041 372.302 778.041 367.258ZM846.911 382.78C843.427 382.78 840.333 382.234 837.629 381.142C834.925 379.998 832.611 378.464 830.687 376.54C828.815 374.616 827.385 372.406 826.397 369.91C825.409 367.362 824.915 364.71 824.915 361.954C824.915 358.002 825.773 354.414 827.489 351.19C829.257 347.914 831.779 345.288 835.055 343.312C838.331 341.284 842.283 340.27 846.911 340.27C851.539 340.27 855.465 341.258 858.689 343.234C861.965 345.21 864.461 347.81 866.177 351.034C867.893 354.206 868.751 357.664 868.751 361.408C868.751 362.136 868.699 362.864 868.595 363.592C868.543 364.268 868.491 364.866 868.439 365.386H838.175C838.331 367.206 838.825 368.74 839.657 369.988C840.541 371.236 841.659 372.198 843.011 372.874C844.363 373.498 845.793 373.81 847.301 373.81C849.173 373.81 850.915 373.368 852.527 372.484C854.191 371.6 855.335 370.404 855.959 368.896L866.567 371.86C865.527 373.992 864.045 375.89 862.121 377.554C860.249 379.166 858.013 380.44 855.413 381.376C852.865 382.312 850.031 382.78 846.911 382.78ZM837.863 357.742H855.647C855.439 356.026 854.945 354.544 854.165 353.296C853.385 351.996 852.345 351.008 851.045 350.332C849.745 349.604 848.315 349.24 846.755 349.24C845.143 349.24 843.687 349.604 842.387 350.332C841.139 351.008 840.125 351.996 839.345 353.296C838.565 354.544 838.071 356.026 837.863 357.742ZM908.29 382.78C904.806 382.78 901.4 382.208 898.072 381.064C894.744 379.92 891.936 378.23 889.648 375.994L893.938 368.116C896.434 369.936 898.852 371.314 901.192 372.25C903.584 373.186 905.82 373.654 907.9 373.654C909.512 373.654 910.76 373.394 911.644 372.874C912.528 372.354 912.97 371.548 912.97 370.456C912.97 369.676 912.71 369.078 912.19 368.662C911.67 368.194 910.864 367.778 909.772 367.414C908.732 367.05 907.432 366.66 905.872 366.244C902.752 365.204 900.152 364.19 898.072 363.202C895.992 362.214 894.432 361.018 893.392 359.614C892.352 358.158 891.832 356.286 891.832 353.998C891.832 351.242 892.508 348.85 893.86 346.822C895.264 344.742 897.24 343.13 899.788 341.986C902.336 340.842 905.378 340.27 908.914 340.27C911.722 340.27 914.452 340.712 917.104 341.596C919.808 342.48 922.33 343.962 924.67 346.042L919.834 353.842C917.494 352.23 915.414 351.06 913.594 350.332C911.774 349.604 910.006 349.24 908.29 349.24C907.406 349.24 906.6 349.344 905.872 349.552C905.144 349.76 904.546 350.124 904.078 350.644C903.662 351.112 903.454 351.736 903.454 352.516C903.454 353.296 903.662 353.92 904.078 354.388C904.546 354.856 905.248 355.272 906.184 355.636C907.172 355.948 908.394 356.338 909.85 356.806C913.23 357.794 916.038 358.808 918.274 359.848C920.51 360.836 922.174 362.084 923.266 363.592C924.41 365.048 924.982 366.998 924.982 369.442C924.982 373.602 923.474 376.878 920.458 379.27C917.494 381.61 913.438 382.78 908.29 382.78ZM950.962 382.78C947.478 382.78 944.384 382.234 941.68 381.142C938.976 379.998 936.662 378.464 934.738 376.54C932.866 374.616 931.436 372.406 930.448 369.91C929.46 367.362 928.966 364.71 928.966 361.954C928.966 358.002 929.824 354.414 931.54 351.19C933.308 347.914 935.83 345.288 939.106 343.312C942.382 341.284 946.334 340.27 950.962 340.27C955.59 340.27 959.516 341.258 962.74 343.234C966.016 345.21 968.512 347.81 970.228 351.034C971.944 354.206 972.802 357.664 972.802 361.408C972.802 362.136 972.75 362.864 972.646 363.592C972.594 364.268 972.542 364.866 972.49 365.386H942.226C942.382 367.206 942.876 368.74 943.708 369.988C944.592 371.236 945.71 372.198 947.062 372.874C948.414 373.498 949.844 373.81 951.352 373.81C953.224 373.81 954.966 373.368 956.578 372.484C958.242 371.6 959.386 370.404 960.01 368.896L970.618 371.86C969.578 373.992 968.096 375.89 966.172 377.554C964.3 379.166 962.064 380.44 959.464 381.376C956.916 382.312 954.082 382.78 950.962 382.78ZM941.914 357.742H959.698C959.49 356.026 958.996 354.544 958.216 353.296C957.436 351.996 956.396 351.008 955.096 350.332C953.796 349.604 952.366 349.24 950.806 349.24C949.194 349.24 947.738 349.604 946.438 350.332C945.19 351.008 944.176 351.996 943.396 353.296C942.616 354.544 942.122 356.026 941.914 357.742ZM999.315 382V353.842H994.089V344.404H999.315V341.05C999.315 337.618 999.887 334.654 1001.03 332.158C1002.23 329.662 1003.89 327.738 1006.02 326.386C1008.21 324.982 1010.73 324.28 1013.59 324.28C1015.36 324.28 1017.13 324.488 1018.89 324.904C1020.66 325.32 1022.46 325.918 1024.28 326.698L1022.01 336.058C1021.23 335.694 1020.32 335.408 1019.28 335.2C1018.24 334.94 1017.28 334.81 1016.4 334.81C1014.89 334.81 1013.75 335.304 1012.97 336.292C1012.19 337.228 1011.8 338.658 1011.8 340.582V344.404H1021.31V353.842H1011.8V382H999.315ZM1023.8 369.754C1023.8 367.05 1024.55 364.684 1026.06 362.656C1027.57 360.628 1029.65 359.042 1032.3 357.898C1034.95 356.702 1037.99 356.104 1041.42 356.104C1043.09 356.104 1044.73 356.26 1046.34 356.572C1047.95 356.832 1049.35 357.222 1050.55 357.742V355.948C1050.55 353.712 1049.87 351.996 1048.52 350.8C1047.17 349.604 1045.12 349.006 1042.36 349.006C1040.07 349.006 1037.91 349.396 1035.89 350.176C1033.91 350.956 1031.8 352.074 1029.57 353.53L1025.82 345.574C1028.53 343.806 1031.34 342.48 1034.25 341.596C1037.21 340.712 1040.33 340.27 1043.61 340.27C1049.74 340.27 1054.5 341.752 1057.88 344.716C1061.31 347.628 1063.03 351.866 1063.03 357.43V368.116C1063.03 369.364 1063.21 370.248 1063.58 370.768C1063.99 371.236 1064.69 371.522 1065.68 371.626V382C1064.64 382.208 1063.65 382.364 1062.72 382.468C1061.83 382.572 1061.05 382.624 1060.38 382.624C1058.04 382.624 1056.24 382.156 1055 381.22C1053.8 380.284 1053.05 379.01 1052.73 377.398L1052.5 375.604C1050.68 377.944 1048.5 379.738 1045.95 380.986C1043.45 382.182 1040.83 382.78 1038.07 382.78C1035.37 382.78 1032.92 382.208 1030.74 381.064C1028.61 379.92 1026.92 378.36 1025.67 376.384C1024.42 374.408 1023.8 372.198 1023.8 369.754ZM1048.6 371.314C1049.17 370.846 1049.64 370.326 1050 369.754C1050.37 369.182 1050.55 368.636 1050.55 368.116V364.45C1049.51 364.034 1048.34 363.722 1047.04 363.514C1045.79 363.254 1044.62 363.124 1043.53 363.124C1041.24 363.124 1039.34 363.644 1037.84 364.684C1036.33 365.672 1035.57 366.998 1035.57 368.662C1035.57 369.598 1035.83 370.456 1036.35 371.236C1036.87 372.016 1037.58 372.64 1038.46 373.108C1039.4 373.576 1040.49 373.81 1041.74 373.81C1042.98 373.81 1044.23 373.576 1045.48 373.108C1046.73 372.64 1047.77 372.042 1048.6 371.314ZM1069.66 374.512L1090.48 349.708H1070.75V341.05H1103.59V348.538L1082.99 373.342H1104.13V382H1069.66V374.512ZM1126.25 369.754C1126.25 367.05 1127 364.684 1128.51 362.656C1130.02 360.628 1132.1 359.042 1134.75 357.898C1137.4 356.702 1140.44 356.104 1143.88 356.104C1145.54 356.104 1147.18 356.26 1148.79 356.572C1150.4 356.832 1151.81 357.222 1153 357.742V355.948C1153 353.712 1152.33 351.996 1150.97 350.8C1149.62 349.604 1147.57 349.006 1144.81 349.006C1142.52 349.006 1140.37 349.396 1138.34 350.176C1136.36 350.956 1134.26 352.074 1132.02 353.53L1128.28 345.574C1130.98 343.806 1133.79 342.48 1136.7 341.596C1139.66 340.712 1142.78 340.27 1146.06 340.27C1152.2 340.27 1156.95 341.752 1160.33 344.716C1163.77 347.628 1165.48 351.866 1165.48 357.43V368.116C1165.48 369.364 1165.66 370.248 1166.03 370.768C1166.44 371.236 1167.15 371.522 1168.13 371.626V382C1167.09 382.208 1166.11 382.364 1165.17 382.468C1164.29 382.572 1163.51 382.624 1162.83 382.624C1160.49 382.624 1158.7 382.156 1157.45 381.22C1156.25 380.284 1155.5 379.01 1155.19 377.398L1154.95 375.604C1153.13 377.944 1150.95 379.738 1148.4 380.986C1145.9 382.182 1143.28 382.78 1140.52 382.78C1137.82 382.78 1135.37 382.208 1133.19 381.064C1131.06 379.92 1129.37 378.36 1128.12 376.384C1126.87 374.408 1126.25 372.198 1126.25 369.754ZM1151.05 371.314C1151.62 370.846 1152.09 370.326 1152.46 369.754C1152.82 369.182 1153 368.636 1153 368.116V364.45C1151.96 364.034 1150.79 363.722 1149.49 363.514C1148.24 363.254 1147.07 363.124 1145.98 363.124C1143.69 363.124 1141.8 363.644 1140.29 364.684C1138.78 365.672 1138.03 366.998 1138.03 368.662C1138.03 369.598 1138.29 370.456 1138.81 371.236C1139.33 372.016 1140.03 372.64 1140.91 373.108C1141.85 373.576 1142.94 373.81 1144.19 373.81C1145.44 373.81 1146.68 373.576 1147.93 373.108C1149.18 372.64 1150.22 372.042 1151.05 371.314ZM1190.39 361.486C1190.39 357.482 1191.17 353.894 1192.73 350.722C1194.29 347.498 1196.42 344.95 1199.13 343.078C1201.83 341.206 1204.95 340.27 1208.49 340.27C1211.35 340.27 1213.95 340.972 1216.29 342.376C1218.63 343.728 1220.39 345.522 1221.59 347.758V325.06H1234.07V368.116C1234.07 369.364 1234.28 370.248 1234.69 370.768C1235.11 371.236 1235.79 371.522 1236.72 371.626V382C1234.54 382.416 1232.77 382.624 1231.42 382.624C1229.29 382.624 1227.54 382.156 1226.19 381.22C1224.89 380.284 1224.09 378.984 1223.77 377.32L1223.54 375.214C1222.08 377.762 1220.11 379.66 1217.61 380.908C1215.12 382.156 1212.49 382.78 1209.73 382.78C1206.93 382.78 1204.33 382.26 1201.93 381.22C1199.59 380.128 1197.54 378.62 1195.77 376.696C1194.06 374.772 1192.73 372.51 1191.79 369.91C1190.86 367.31 1190.39 364.502 1190.39 361.486ZM1221.67 366.556V357.976C1221.15 356.572 1220.39 355.35 1219.41 354.31C1218.47 353.27 1217.38 352.438 1216.13 351.814C1214.93 351.19 1213.71 350.878 1212.46 350.878C1211.11 350.878 1209.86 351.164 1208.72 351.736C1207.63 352.308 1206.67 353.114 1205.83 354.154C1205 355.142 1204.35 356.286 1203.88 357.586C1203.47 358.886 1203.26 360.264 1203.26 361.72C1203.26 363.228 1203.49 364.632 1203.96 365.932C1204.48 367.18 1205.18 368.298 1206.07 369.286C1206.95 370.222 1207.99 370.95 1209.19 371.47C1210.38 371.99 1211.68 372.25 1213.09 372.25C1213.97 372.25 1214.83 372.12 1215.66 371.86C1216.49 371.548 1217.27 371.158 1218 370.69C1218.78 370.222 1219.48 369.624 1220.11 368.896C1220.73 368.168 1221.25 367.388 1221.67 366.556ZM1243.76 382V341.05H1256.24V382H1243.76ZM1243.76 336.37V325.06H1256.24V336.37H1243.76ZM1267.44 382V353.842H1262.21V344.404H1267.44V341.05C1267.44 337.618 1268.01 334.654 1269.16 332.158C1270.35 329.662 1272.02 327.738 1274.15 326.386C1276.33 324.982 1278.85 324.28 1281.71 324.28C1283.48 324.28 1285.25 324.488 1287.02 324.904C1288.79 325.32 1290.58 325.918 1292.4 326.698L1290.14 336.058C1289.36 335.694 1288.45 335.408 1287.41 335.2C1286.37 334.94 1285.41 334.81 1284.52 334.81C1283.01 334.81 1281.87 335.304 1281.09 336.292C1280.31 337.228 1279.92 338.658 1279.92 340.582V344.404H1289.44V353.842H1279.92V382H1267.44ZM1314.07 382.78C1310.59 382.78 1307.5 382.234 1304.79 381.142C1302.09 379.998 1299.77 378.464 1297.85 376.54C1295.98 374.616 1294.55 372.406 1293.56 369.91C1292.57 367.362 1292.08 364.71 1292.08 361.954C1292.08 358.002 1292.94 354.414 1294.65 351.19C1296.42 347.914 1298.94 345.288 1302.22 343.312C1305.49 341.284 1309.45 340.27 1314.07 340.27C1318.7 340.27 1322.63 341.258 1325.85 343.234C1329.13 345.21 1331.62 347.81 1333.34 351.034C1335.06 354.206 1335.91 357.664 1335.91 361.408C1335.91 362.136 1335.86 362.864 1335.76 363.592C1335.71 364.268 1335.65 364.866 1335.6 365.386H1305.34C1305.49 367.206 1305.99 368.74 1306.82 369.988C1307.7 371.236 1308.82 372.198 1310.17 372.874C1311.53 373.498 1312.96 373.81 1314.46 373.81C1316.34 373.81 1318.08 373.368 1319.69 372.484C1321.35 371.6 1322.5 370.404 1323.12 368.896L1333.73 371.86C1332.69 373.992 1331.21 375.89 1329.28 377.554C1327.41 379.166 1325.18 380.44 1322.58 381.376C1320.03 382.312 1317.19 382.78 1314.07 382.78ZM1305.03 357.742H1322.81C1322.6 356.026 1322.11 354.544 1321.33 353.296C1320.55 351.996 1319.51 351.008 1318.21 350.332C1316.91 349.604 1315.48 349.24 1313.92 349.24C1312.31 349.24 1310.85 349.604 1309.55 350.332C1308.3 351.008 1307.29 351.996 1306.51 353.296C1305.73 354.544 1305.23 356.026 1305.03 357.742ZM1367.54 351.736C1364.53 351.736 1361.8 352.23 1359.35 353.218C1356.91 354.154 1355.14 355.558 1354.05 357.43V382H1341.57V341.05H1353.04V349.318C1354.44 346.562 1356.26 344.404 1358.5 342.844C1360.73 341.284 1363.07 340.478 1365.52 340.426C1366.09 340.426 1366.5 340.426 1366.76 340.426C1367.08 340.426 1367.34 340.452 1367.54 340.504V351.736ZM1392.07 382.78C1388.59 382.78 1385.5 382.234 1382.79 381.142C1380.09 379.998 1377.77 378.464 1375.85 376.54C1373.98 374.616 1372.55 372.406 1371.56 369.91C1370.57 367.362 1370.08 364.71 1370.08 361.954C1370.08 358.002 1370.94 354.414 1372.65 351.19C1374.42 347.914 1376.94 345.288 1380.22 343.312C1383.49 341.284 1387.45 340.27 1392.07 340.27C1396.7 340.27 1400.63 341.258 1403.85 343.234C1407.13 345.21 1409.62 347.81 1411.34 351.034C1413.06 354.206 1413.91 357.664 1413.91 361.408C1413.91 362.136 1413.86 362.864 1413.76 363.592C1413.71 364.268 1413.65 364.866 1413.6 365.386H1383.34C1383.49 367.206 1383.99 368.74 1384.82 369.988C1385.7 371.236 1386.82 372.198 1388.17 372.874C1389.53 373.498 1390.96 373.81 1392.46 373.81C1394.34 373.81 1396.08 373.368 1397.69 372.484C1399.35 371.6 1400.5 370.404 1401.12 368.896L1411.73 371.86C1410.69 373.992 1409.21 375.89 1407.28 377.554C1405.41 379.166 1403.18 380.44 1400.58 381.376C1398.03 382.312 1395.19 382.78 1392.07 382.78ZM1383.03 357.742H1400.81C1400.6 356.026 1400.11 354.544 1399.33 353.296C1398.55 351.996 1397.51 351.008 1396.21 350.332C1394.91 349.604 1393.48 349.24 1391.92 349.24C1390.31 349.24 1388.85 349.604 1387.55 350.332C1386.3 351.008 1385.29 351.996 1384.51 353.296C1383.73 354.544 1383.23 356.026 1383.03 357.742ZM1459.04 382H1446.56V358.99C1446.56 356.286 1446.04 354.336 1445 353.14C1444.01 351.892 1442.68 351.268 1441.02 351.268C1439.88 351.268 1438.71 351.58 1437.51 352.204C1436.31 352.828 1435.22 353.686 1434.23 354.778C1433.3 355.87 1432.57 357.118 1432.05 358.522V382H1419.57V341.05H1430.8V347.914C1431.84 346.302 1433.14 344.924 1434.7 343.78C1436.26 342.636 1438.06 341.778 1440.08 341.206C1442.11 340.582 1444.32 340.27 1446.71 340.27C1449.37 340.27 1451.5 340.764 1453.11 341.752C1454.77 342.688 1456.02 343.936 1456.85 345.496C1457.74 347.056 1458.31 348.746 1458.57 350.566C1458.88 352.334 1459.04 354.076 1459.04 355.792V382ZM1486.91 382.78C1483.42 382.78 1480.33 382.208 1477.63 381.064C1474.92 379.92 1472.61 378.36 1470.68 376.384C1468.81 374.408 1467.38 372.146 1466.39 369.598C1465.41 367.05 1464.91 364.346 1464.91 361.486C1464.91 357.742 1465.77 354.258 1467.49 351.034C1469.25 347.81 1471.78 345.21 1475.05 343.234C1478.33 341.258 1482.28 340.27 1486.91 340.27C1491.59 340.27 1495.54 341.284 1498.76 343.312C1502.04 345.288 1504.48 347.888 1506.1 351.112L1493.93 354.778C1493.15 353.53 1492.13 352.568 1490.89 351.892C1489.69 351.216 1488.34 350.878 1486.83 350.878C1485.11 350.878 1483.55 351.32 1482.15 352.204C1480.8 353.088 1479.71 354.31 1478.87 355.87C1478.09 357.43 1477.7 359.302 1477.7 361.486C1477.7 363.618 1478.12 365.49 1478.95 367.102C1479.78 368.714 1480.88 369.988 1482.23 370.924C1483.58 371.808 1485.11 372.25 1486.83 372.25C1487.87 372.25 1488.83 372.094 1489.72 371.782C1490.65 371.418 1491.48 370.924 1492.21 370.3C1492.99 369.676 1493.59 368.974 1494.01 368.194L1506.17 371.938C1505.19 374.018 1503.76 375.89 1501.88 377.554C1500.06 379.166 1497.91 380.44 1495.41 381.376C1492.91 382.312 1490.08 382.78 1486.91 382.78ZM1485.89 398.38C1484.44 398.38 1482.88 398.172 1481.21 397.756C1479.6 397.34 1477.99 396.716 1476.38 395.884L1479.34 389.41C1480.07 389.93 1480.8 390.32 1481.53 390.58C1482.25 390.84 1483.01 390.97 1483.79 390.97C1484.88 390.97 1485.76 390.684 1486.44 390.112C1487.17 389.54 1487.53 388.734 1487.53 387.694C1487.53 386.654 1487.19 385.666 1486.52 384.73C1485.89 383.846 1484.96 382.936 1483.71 382L1487.77 379.504C1489.79 380.908 1491.48 382.442 1492.84 384.106C1494.24 385.77 1494.94 387.772 1494.94 390.112C1494.94 392.348 1494.19 394.272 1492.68 395.884C1491.17 397.548 1488.91 398.38 1485.89 398.38ZM1509.24 369.754C1509.24 367.05 1509.99 364.684 1511.5 362.656C1513.01 360.628 1515.09 359.042 1517.74 357.898C1520.39 356.702 1523.44 356.104 1526.87 356.104C1528.53 356.104 1530.17 356.26 1531.78 356.572C1533.39 356.832 1534.8 357.222 1535.99 357.742V355.948C1535.99 353.712 1535.32 351.996 1533.97 350.8C1532.61 349.604 1530.56 349.006 1527.8 349.006C1525.52 349.006 1523.36 349.396 1521.33 350.176C1519.35 350.956 1517.25 352.074 1515.01 353.53L1511.27 345.574C1513.97 343.806 1516.78 342.48 1519.69 341.596C1522.66 340.712 1525.78 340.27 1529.05 340.27C1535.19 340.27 1539.95 341.752 1543.33 344.716C1546.76 347.628 1548.47 351.866 1548.47 357.43V368.116C1548.47 369.364 1548.66 370.248 1549.02 370.768C1549.44 371.236 1550.14 371.522 1551.13 371.626V382C1550.09 382.208 1549.1 382.364 1548.16 382.468C1547.28 382.572 1546.5 382.624 1545.82 382.624C1543.48 382.624 1541.69 382.156 1540.44 381.22C1539.24 380.284 1538.49 379.01 1538.18 377.398L1537.94 375.604C1536.12 377.944 1533.94 379.738 1531.39 380.986C1528.9 382.182 1526.27 382.78 1523.51 382.78C1520.81 382.78 1518.37 382.208 1516.18 381.064C1514.05 379.92 1512.36 378.36 1511.11 376.384C1509.86 374.408 1509.24 372.198 1509.24 369.754ZM1534.04 371.314C1534.62 370.846 1535.08 370.326 1535.45 369.754C1535.81 369.182 1535.99 368.636 1535.99 368.116V364.45C1534.95 364.034 1533.78 363.722 1532.48 363.514C1531.24 363.254 1530.07 363.124 1528.97 363.124C1526.69 363.124 1524.79 363.644 1523.28 364.684C1521.77 365.672 1521.02 366.998 1521.02 368.662C1521.02 369.598 1521.28 370.456 1521.8 371.236C1522.32 372.016 1523.02 372.64 1523.9 373.108C1524.84 373.576 1525.93 373.81 1527.18 373.81C1528.43 373.81 1529.68 373.576 1530.92 373.108C1532.17 372.64 1533.21 372.042 1534.04 371.314ZM1558.84 392.53L1561.26 381.844H1557.44V369.286H1567.97V381.844L1564.3 392.53H1558.84ZM395.082 474.78C391.598 474.78 388.192 474.208 384.864 473.064C381.536 471.92 378.728 470.23 376.44 467.994L380.73 460.116C383.226 461.936 385.644 463.314 387.984 464.25C390.376 465.186 392.612 465.654 394.692 465.654C396.304 465.654 397.552 465.394 398.436 464.874C399.32 464.354 399.762 463.548 399.762 462.456C399.762 461.676 399.502 461.078 398.982 460.662C398.462 460.194 397.656 459.778 396.564 459.414C395.524 459.05 394.224 458.66 392.664 458.244C389.544 457.204 386.944 456.19 384.864 455.202C382.784 454.214 381.224 453.018 380.184 451.614C379.144 450.158 378.624 448.286 378.624 445.998C378.624 443.242 379.3 440.85 380.652 438.822C382.056 436.742 384.032 435.13 386.58 433.986C389.128 432.842 392.17 432.27 395.706 432.27C398.514 432.27 401.244 432.712 403.896 433.596C406.6 434.48 409.122 435.962 411.462 438.042L406.626 445.842C404.286 444.23 402.206 443.06 400.386 442.332C398.566 441.604 396.798 441.24 395.082 441.24C394.198 441.24 393.392 441.344 392.664 441.552C391.936 441.76 391.338 442.124 390.87 442.644C390.454 443.112 390.246 443.736 390.246 444.516C390.246 445.296 390.454 445.92 390.87 446.388C391.338 446.856 392.04 447.272 392.976 447.636C393.964 447.948 395.186 448.338 396.642 448.806C400.022 449.794 402.83 450.808 405.066 451.848C407.302 452.836 408.966 454.084 410.058 455.592C411.202 457.048 411.774 458.998 411.774 461.442C411.774 465.602 410.266 468.878 407.25 471.27C404.286 473.61 400.23 474.78 395.082 474.78ZM437.754 474.78C434.27 474.78 431.176 474.234 428.472 473.142C425.768 471.998 423.454 470.464 421.53 468.54C419.658 466.616 418.228 464.406 417.24 461.91C416.252 459.362 415.758 456.71 415.758 453.954C415.758 450.002 416.616 446.414 418.332 443.19C420.1 439.914 422.622 437.288 425.898 435.312C429.174 433.284 433.126 432.27 437.754 432.27C442.382 432.27 446.308 433.258 449.532 435.234C452.808 437.21 455.304 439.81 457.02 443.034C458.736 446.206 459.594 449.664 459.594 453.408C459.594 454.136 459.542 454.864 459.438 455.592C459.386 456.268 459.334 456.866 459.282 457.386H429.018C429.174 459.206 429.668 460.74 430.5 461.988C431.384 463.236 432.502 464.198 433.854 464.874C435.206 465.498 436.636 465.81 438.144 465.81C440.016 465.81 441.758 465.368 443.37 464.484C445.034 463.6 446.178 462.404 446.802 460.896L457.41 463.86C456.37 465.992 454.888 467.89 452.964 469.554C451.092 471.166 448.856 472.44 446.256 473.376C443.708 474.312 440.874 474.78 437.754 474.78ZM428.706 449.742H446.49C446.282 448.026 445.788 446.544 445.008 445.296C444.228 443.996 443.188 443.008 441.888 442.332C440.588 441.604 439.158 441.24 437.598 441.24C435.986 441.24 434.53 441.604 433.23 442.332C431.982 443.008 430.968 443.996 430.188 445.296C429.408 446.544 428.914 448.026 428.706 449.742ZM463.066 489.756C461.038 489.756 459.088 489.418 457.216 488.742C455.292 488.118 453.576 487.156 452.068 485.856L457.294 477.354C457.814 477.926 458.464 478.342 459.244 478.602C459.972 478.862 460.726 478.992 461.506 478.992C462.286 478.992 462.988 478.81 463.612 478.446C464.236 478.134 464.73 477.64 465.094 476.964C465.458 476.288 465.64 475.534 465.64 474.702V433.05H478.12V473.766C478.12 476.886 477.444 479.642 476.092 482.034C474.792 484.478 472.998 486.376 470.71 487.728C468.474 489.08 465.926 489.756 463.066 489.756ZM465.64 428.37V417.06H478.12V428.37H465.64ZM484.08 461.754C484.08 459.05 484.834 456.684 486.342 454.656C487.85 452.628 489.93 451.042 492.582 449.898C495.234 448.702 498.276 448.104 501.708 448.104C503.372 448.104 505.01 448.26 506.622 448.572C508.234 448.832 509.638 449.222 510.834 449.742V447.948C510.834 445.712 510.158 443.996 508.806 442.8C507.454 441.604 505.4 441.006 502.644 441.006C500.356 441.006 498.198 441.396 496.17 442.176C494.194 442.956 492.088 444.074 489.852 445.53L486.108 437.574C488.812 435.806 491.62 434.48 494.532 433.596C497.496 432.712 500.616 432.27 503.892 432.27C510.028 432.27 514.786 433.752 518.166 436.716C521.598 439.628 523.314 443.866 523.314 449.43V460.116C523.314 461.364 523.496 462.248 523.86 462.768C524.276 463.236 524.978 463.522 525.966 463.626V474C524.926 474.208 523.938 474.364 523.002 474.468C522.118 474.572 521.338 474.624 520.662 474.624C518.322 474.624 516.528 474.156 515.28 473.22C514.084 472.284 513.33 471.01 513.018 469.398L512.784 467.604C510.964 469.944 508.78 471.738 506.232 472.986C503.736 474.182 501.11 474.78 498.354 474.78C495.65 474.78 493.206 474.208 491.022 473.064C488.89 471.92 487.2 470.36 485.952 468.384C484.704 466.408 484.08 464.198 484.08 461.754ZM508.884 463.314C509.456 462.846 509.924 462.326 510.288 461.754C510.652 461.182 510.834 460.636 510.834 460.116V456.45C509.794 456.034 508.624 455.722 507.324 455.514C506.076 455.254 504.906 455.124 503.814 455.124C501.526 455.124 499.628 455.644 498.12 456.684C496.612 457.672 495.858 458.998 495.858 460.662C495.858 461.598 496.118 462.456 496.638 463.236C497.158 464.016 497.86 464.64 498.744 465.108C499.68 465.576 500.772 465.81 502.02 465.81C503.268 465.81 504.516 465.576 505.764 465.108C507.012 464.64 508.052 464.042 508.884 463.314ZM559.114 474L544.606 433.05H557.476L566.446 462.768L575.416 433.05H587.116L572.686 474H559.114ZM609.977 474.78C606.493 474.78 603.373 474.208 600.617 473.064C597.913 471.92 595.625 470.36 593.753 468.384C591.881 466.408 590.451 464.146 589.463 461.598C588.527 459.05 588.059 456.372 588.059 453.564C588.059 450.704 588.527 448 589.463 445.452C590.451 442.904 591.881 440.642 593.753 438.666C595.625 436.69 597.913 435.13 600.617 433.986C603.373 432.842 606.493 432.27 609.977 432.27C613.461 432.27 616.555 432.842 619.259 433.986C621.963 435.13 624.251 436.69 626.123 438.666C627.995 440.642 629.425 442.904 630.413 445.452C631.401 448 631.895 450.704 631.895 453.564C631.895 456.372 631.401 459.05 630.413 461.598C629.425 464.146 627.995 466.408 626.123 468.384C624.251 470.36 621.963 471.92 619.259 473.064C616.555 474.208 613.461 474.78 609.977 474.78ZM600.851 453.564C600.851 455.696 601.241 457.568 602.021 459.18C602.853 460.792 603.945 462.04 605.297 462.924C606.649 463.808 608.209 464.25 609.977 464.25C611.693 464.25 613.227 463.808 614.579 462.924C615.983 461.988 617.075 460.714 617.855 459.102C618.635 457.49 619.025 455.644 619.025 453.564C619.025 451.432 618.635 449.56 617.855 447.948C617.075 446.336 615.983 445.088 614.579 444.204C613.227 443.32 611.693 442.878 609.977 442.878C608.209 442.878 606.649 443.32 605.297 444.204C603.945 445.088 602.853 446.336 602.021 447.948C601.241 449.56 600.851 451.432 600.851 453.564ZM657.662 474.78C654.178 474.78 651.084 474.208 648.38 473.064C645.676 471.92 643.362 470.36 641.438 468.384C639.566 466.408 638.136 464.146 637.148 461.598C636.16 459.05 635.666 456.346 635.666 453.486C635.666 449.742 636.524 446.258 638.24 443.034C640.008 439.81 642.53 437.21 645.806 435.234C649.082 433.258 653.034 432.27 657.662 432.27C662.342 432.27 666.294 433.284 669.518 435.312C672.794 437.288 675.238 439.888 676.85 443.112L664.682 446.778C663.902 445.53 662.888 444.568 661.64 443.892C660.444 443.216 659.092 442.878 657.584 442.878C655.868 442.878 654.308 443.32 652.904 444.204C651.552 445.088 650.46 446.31 649.628 447.87C648.848 449.43 648.458 451.302 648.458 453.486C648.458 455.618 648.874 457.49 649.706 459.102C650.538 460.714 651.63 461.988 652.982 462.924C654.334 463.808 655.868 464.25 657.584 464.25C658.624 464.25 659.586 464.094 660.47 463.782C661.406 463.418 662.238 462.924 662.966 462.3C663.746 461.676 664.344 460.974 664.76 460.194L676.928 463.938C675.94 466.018 674.51 467.89 672.638 469.554C670.818 471.166 668.66 472.44 666.164 473.376C663.668 474.312 660.834 474.78 657.662 474.78ZM701.765 474.78C698.281 474.78 695.187 474.234 692.483 473.142C689.779 471.998 687.465 470.464 685.541 468.54C683.669 466.616 682.239 464.406 681.251 461.91C680.263 459.362 679.769 456.71 679.769 453.954C679.769 450.002 680.627 446.414 682.343 443.19C684.111 439.914 686.633 437.288 689.909 435.312C693.185 433.284 697.137 432.27 701.765 432.27C706.393 432.27 710.319 433.258 713.543 435.234C716.819 437.21 719.315 439.81 721.031 443.034C722.747 446.206 723.605 449.664 723.605 453.408C723.605 454.136 723.553 454.864 723.449 455.592C723.397 456.268 723.345 456.866 723.293 457.386H693.029C693.185 459.206 693.679 460.74 694.511 461.988C695.395 463.236 696.513 464.198 697.865 464.874C699.217 465.498 700.647 465.81 702.155 465.81C704.027 465.81 705.769 465.368 707.381 464.484C709.045 463.6 710.189 462.404 710.813 460.896L721.421 463.86C720.381 465.992 718.899 467.89 716.975 469.554C715.103 471.166 712.867 472.44 710.267 473.376C707.719 474.312 704.885 474.78 701.765 474.78ZM692.717 449.742H710.501C710.293 448.026 709.799 446.544 709.019 445.296C708.239 443.996 707.199 443.008 705.899 442.332C704.599 441.604 703.169 441.24 701.609 441.24C699.997 441.24 698.541 441.604 697.241 442.332C695.993 443.008 694.979 443.996 694.199 445.296C693.419 446.544 692.925 448.026 692.717 449.742ZM688.583 425.484L697.163 417.06H706.133L714.635 425.484L708.239 428.292L701.609 423.378L694.979 428.292L688.583 425.484ZM744.893 461.754C744.893 459.05 745.647 456.684 747.155 454.656C748.663 452.628 750.743 451.042 753.395 449.898C756.047 448.702 759.089 448.104 762.521 448.104C764.185 448.104 765.823 448.26 767.435 448.572C769.047 448.832 770.451 449.222 771.647 449.742V447.948C771.647 445.712 770.971 443.996 769.619 442.8C768.267 441.604 766.213 441.006 763.457 441.006C761.169 441.006 759.011 441.396 756.983 442.176C755.007 442.956 752.901 444.074 750.665 445.53L746.921 437.574C749.625 435.806 752.433 434.48 755.345 433.596C758.309 432.712 761.429 432.27 764.705 432.27C770.841 432.27 775.599 433.752 778.979 436.716C782.411 439.628 784.127 443.866 784.127 449.43V460.116C784.127 461.364 784.309 462.248 784.673 462.768C785.089 463.236 785.791 463.522 786.779 463.626V474C785.739 474.208 784.751 474.364 783.815 474.468C782.931 474.572 782.151 474.624 781.475 474.624C779.135 474.624 777.341 474.156 776.093 473.22C774.897 472.284 774.143 471.01 773.831 469.398L773.597 467.604C771.777 469.944 769.593 471.738 767.045 472.986C764.549 474.182 761.923 474.78 759.167 474.78C756.463 474.78 754.019 474.208 751.835 473.064C749.703 471.92 748.013 470.36 746.765 468.384C745.517 466.408 744.893 464.198 744.893 461.754ZM769.697 463.314C770.269 462.846 770.737 462.326 771.101 461.754C771.465 461.182 771.647 460.636 771.647 460.116V456.45C770.607 456.034 769.437 455.722 768.137 455.514C766.889 455.254 765.719 455.124 764.627 455.124C762.339 455.124 760.441 455.644 758.933 456.684C757.425 457.672 756.671 458.998 756.671 460.662C756.671 461.598 756.931 462.456 757.451 463.236C757.971 464.016 758.673 464.64 759.557 465.108C760.493 465.576 761.585 465.81 762.833 465.81C764.081 465.81 765.329 465.576 766.577 465.108C767.825 464.64 768.865 464.042 769.697 463.314ZM809.035 453.486C809.035 449.482 809.815 445.894 811.375 442.722C812.935 439.498 815.067 436.95 817.771 435.078C820.475 433.206 823.595 432.27 827.131 432.27C829.991 432.27 832.591 432.972 834.931 434.376C837.271 435.728 839.039 437.522 840.235 439.758V417.06H852.715V460.116C852.715 461.364 852.923 462.248 853.339 462.768C853.755 463.236 854.431 463.522 855.367 463.626V474C853.183 474.416 851.415 474.624 850.063 474.624C847.931 474.624 846.189 474.156 844.837 473.22C843.537 472.284 842.731 470.984 842.419 469.32L842.185 467.214C840.729 469.762 838.753 471.66 836.257 472.908C833.761 474.156 831.135 474.78 828.379 474.78C825.571 474.78 822.971 474.26 820.579 473.22C818.239 472.128 816.185 470.62 814.417 468.696C812.701 466.772 811.375 464.51 810.439 461.91C809.503 459.31 809.035 456.502 809.035 453.486ZM840.313 458.556V449.976C839.793 448.572 839.039 447.35 838.051 446.31C837.115 445.27 836.023 444.438 834.775 443.814C833.579 443.19 832.357 442.878 831.109 442.878C829.757 442.878 828.509 443.164 827.365 443.736C826.273 444.308 825.311 445.114 824.479 446.154C823.647 447.142 822.997 448.286 822.529 449.586C822.113 450.886 821.905 452.264 821.905 453.72C821.905 455.228 822.139 456.632 822.607 457.932C823.127 459.18 823.829 460.298 824.713 461.286C825.597 462.222 826.637 462.95 827.833 463.47C829.029 463.99 830.329 464.25 831.733 464.25C832.617 464.25 833.475 464.12 834.307 463.86C835.139 463.548 835.919 463.158 836.647 462.69C837.427 462.222 838.129 461.624 838.753 460.896C839.377 460.168 839.897 459.388 840.313 458.556ZM862.41 474V433.05H874.89V474H862.41ZM862.41 428.37V417.06H874.89V428.37H862.41ZM886.086 474V445.842H880.86V436.404H886.086V433.05C886.086 429.618 886.658 426.654 887.802 424.158C888.998 421.662 890.662 419.738 892.794 418.386C894.978 416.982 897.5 416.28 900.36 416.28C902.128 416.28 903.896 416.488 905.664 416.904C907.432 417.32 909.226 417.918 911.046 418.698L908.784 428.058C908.004 427.694 907.094 427.408 906.054 427.2C905.014 426.94 904.052 426.81 903.168 426.81C901.66 426.81 900.516 427.304 899.736 428.292C898.956 429.228 898.566 430.658 898.566 432.582V436.404H908.082V445.842H898.566V474H886.086ZM932.719 474.78C929.235 474.78 926.141 474.234 923.437 473.142C920.733 471.998 918.419 470.464 916.495 468.54C914.623 466.616 913.193 464.406 912.205 461.91C911.217 459.362 910.723 456.71 910.723 453.954C910.723 450.002 911.581 446.414 913.297 443.19C915.065 439.914 917.587 437.288 920.863 435.312C924.139 433.284 928.091 432.27 932.719 432.27C937.347 432.27 941.273 433.258 944.497 435.234C947.773 437.21 950.269 439.81 951.985 443.034C953.701 446.206 954.559 449.664 954.559 453.408C954.559 454.136 954.507 454.864 954.403 455.592C954.351 456.268 954.299 456.866 954.247 457.386H923.983C924.139 459.206 924.633 460.74 925.465 461.988C926.349 463.236 927.467 464.198 928.819 464.874C930.171 465.498 931.601 465.81 933.109 465.81C934.981 465.81 936.723 465.368 938.335 464.484C939.999 463.6 941.143 462.404 941.767 460.896L952.375 463.86C951.335 465.992 949.853 467.89 947.929 469.554C946.057 471.166 943.821 472.44 941.221 473.376C938.673 474.312 935.839 474.78 932.719 474.78ZM923.671 449.742H941.455C941.247 448.026 940.753 446.544 939.973 445.296C939.193 443.996 938.153 443.008 936.853 442.332C935.553 441.604 934.123 441.24 932.563 441.24C930.951 441.24 929.495 441.604 928.195 442.332C926.947 443.008 925.933 443.996 925.153 445.296C924.373 446.544 923.879 448.026 923.671 449.742ZM986.189 443.736C983.173 443.736 980.443 444.23 977.999 445.218C975.555 446.154 973.787 447.558 972.695 449.43V474H960.215V433.05H971.681V441.318C973.085 438.562 974.905 436.404 977.141 434.844C979.377 433.284 981.717 432.478 984.161 432.426C984.733 432.426 985.149 432.426 985.409 432.426C985.721 432.426 985.981 432.452 986.189 432.504V443.736ZM1010.72 474.78C1007.23 474.78 1004.14 474.234 1001.44 473.142C998.733 471.998 996.419 470.464 994.495 468.54C992.623 466.616 991.193 464.406 990.205 461.91C989.217 459.362 988.723 456.71 988.723 453.954C988.723 450.002 989.581 446.414 991.297 443.19C993.065 439.914 995.587 437.288 998.863 435.312C1002.14 433.284 1006.09 432.27 1010.72 432.27C1015.35 432.27 1019.27 433.258 1022.5 435.234C1025.77 437.21 1028.27 439.81 1029.98 443.034C1031.7 446.206 1032.56 449.664 1032.56 453.408C1032.56 454.136 1032.51 454.864 1032.4 455.592C1032.35 456.268 1032.3 456.866 1032.25 457.386H1001.98C1002.14 459.206 1002.63 460.74 1003.46 461.988C1004.35 463.236 1005.47 464.198 1006.82 464.874C1008.17 465.498 1009.6 465.81 1011.11 465.81C1012.98 465.81 1014.72 465.368 1016.33 464.484C1018 463.6 1019.14 462.404 1019.77 460.896L1030.37 463.86C1029.33 465.992 1027.85 467.89 1025.93 469.554C1024.06 471.166 1021.82 472.44 1019.22 473.376C1016.67 474.312 1013.84 474.78 1010.72 474.78ZM1001.67 449.742H1019.45C1019.25 448.026 1018.75 446.544 1017.97 445.296C1017.19 443.996 1016.15 443.008 1014.85 442.332C1013.55 441.604 1012.12 441.24 1010.56 441.24C1008.95 441.24 1007.49 441.604 1006.19 442.332C1004.95 443.008 1003.93 443.996 1003.15 445.296C1002.37 446.544 1001.88 448.026 1001.67 449.742ZM1077.68 474H1065.2V450.99C1065.2 448.286 1064.68 446.336 1063.64 445.14C1062.65 443.892 1061.33 443.268 1059.66 443.268C1058.52 443.268 1057.35 443.58 1056.15 444.204C1054.96 444.828 1053.87 445.686 1052.88 446.778C1051.94 447.87 1051.21 449.118 1050.69 450.522V474H1038.21V433.05H1049.45V439.914C1050.49 438.302 1051.79 436.924 1053.35 435.78C1054.91 434.636 1056.7 433.778 1058.73 433.206C1060.76 432.582 1062.97 432.27 1065.36 432.27C1068.01 432.27 1070.14 432.764 1071.75 433.752C1073.42 434.688 1074.67 435.936 1075.5 437.496C1076.38 439.056 1076.95 440.746 1077.21 442.566C1077.53 444.334 1077.68 446.076 1077.68 447.792V474ZM1105.55 474.78C1102.07 474.78 1098.97 474.208 1096.27 473.064C1093.57 471.92 1091.25 470.36 1089.33 468.384C1087.46 466.408 1086.03 464.146 1085.04 461.598C1084.05 459.05 1083.56 456.346 1083.56 453.486C1083.56 449.742 1084.41 446.258 1086.13 443.034C1087.9 439.81 1090.42 437.21 1093.7 435.234C1096.97 433.258 1100.92 432.27 1105.55 432.27C1110.23 432.27 1114.18 433.284 1117.41 435.312C1120.68 437.288 1123.13 439.888 1124.74 443.112L1112.57 446.778C1111.79 445.53 1110.78 444.568 1109.53 443.892C1108.33 443.216 1106.98 442.878 1105.47 442.878C1103.76 442.878 1102.2 443.32 1100.79 444.204C1099.44 445.088 1098.35 446.31 1097.52 447.87C1096.74 449.43 1096.35 451.302 1096.35 453.486C1096.35 455.618 1096.76 457.49 1097.6 459.102C1098.43 460.714 1099.52 461.988 1100.87 462.924C1102.22 463.808 1103.76 464.25 1105.47 464.25C1106.51 464.25 1107.48 464.094 1108.36 463.782C1109.3 463.418 1110.13 462.924 1110.86 462.3C1111.64 461.676 1112.23 460.974 1112.65 460.194L1124.82 463.938C1123.83 466.018 1122.4 467.89 1120.53 469.554C1118.71 471.166 1116.55 472.44 1114.05 473.376C1111.56 474.312 1108.72 474.78 1105.55 474.78ZM1104.54 490.38C1103.08 490.38 1101.52 490.172 1099.86 489.756C1098.25 489.34 1096.63 488.716 1095.02 487.884L1097.99 481.41C1098.71 481.93 1099.44 482.32 1100.17 482.58C1100.9 482.84 1101.65 482.97 1102.43 482.97C1103.52 482.97 1104.41 482.684 1105.08 482.112C1105.81 481.54 1106.18 480.734 1106.18 479.694C1106.18 478.654 1105.84 477.666 1105.16 476.73C1104.54 475.846 1103.6 474.936 1102.35 474L1106.41 471.504C1108.44 472.908 1110.13 474.442 1111.48 476.106C1112.88 477.77 1113.59 479.772 1113.59 482.112C1113.59 484.348 1112.83 486.272 1111.32 487.884C1109.82 489.548 1107.55 490.38 1104.54 490.38ZM1127.88 461.754C1127.88 459.05 1128.64 456.684 1130.15 454.656C1131.65 452.628 1133.73 451.042 1136.39 449.898C1139.04 448.702 1142.08 448.104 1145.51 448.104C1147.18 448.104 1148.81 448.26 1150.43 448.572C1152.04 448.832 1153.44 449.222 1154.64 449.742V447.948C1154.64 445.712 1153.96 443.996 1152.61 442.8C1151.26 441.604 1149.2 441.006 1146.45 441.006C1144.16 441.006 1142 441.396 1139.97 442.176C1138 442.956 1135.89 444.074 1133.66 445.53L1129.91 437.574C1132.62 435.806 1135.42 434.48 1138.34 433.596C1141.3 432.712 1144.42 432.27 1147.7 432.27C1153.83 432.27 1158.59 433.752 1161.97 436.716C1165.4 439.628 1167.12 443.866 1167.12 449.43V460.116C1167.12 461.364 1167.3 462.248 1167.66 462.768C1168.08 463.236 1168.78 463.522 1169.77 463.626V474C1168.73 474.208 1167.74 474.364 1166.81 474.468C1165.92 474.572 1165.14 474.624 1164.47 474.624C1162.13 474.624 1160.33 474.156 1159.08 473.22C1157.89 472.284 1157.13 471.01 1156.82 469.398L1156.59 467.604C1154.77 469.944 1152.58 471.738 1150.04 472.986C1147.54 474.182 1144.91 474.78 1142.16 474.78C1139.45 474.78 1137.01 474.208 1134.83 473.064C1132.69 471.92 1131 470.36 1129.76 468.384C1128.51 466.408 1127.88 464.198 1127.88 461.754ZM1152.69 463.314C1153.26 462.846 1153.73 462.326 1154.09 461.754C1154.46 461.182 1154.64 460.636 1154.64 460.116V456.45C1153.6 456.034 1152.43 455.722 1151.13 455.514C1149.88 455.254 1148.71 455.124 1147.62 455.124C1145.33 455.124 1143.43 455.644 1141.92 456.684C1140.42 457.672 1139.66 458.998 1139.66 460.662C1139.66 461.598 1139.92 462.456 1140.44 463.236C1140.96 464.016 1141.66 464.64 1142.55 465.108C1143.48 465.576 1144.58 465.81 1145.82 465.81C1147.07 465.81 1148.32 465.576 1149.57 465.108C1150.82 464.64 1151.86 464.042 1152.69 463.314ZM1192.03 453.486C1192.03 449.482 1192.81 445.894 1194.37 442.722C1195.93 439.498 1198.06 436.95 1200.76 435.078C1203.47 433.206 1206.59 432.27 1210.12 432.27C1212.98 432.27 1215.58 432.972 1217.92 434.376C1220.26 435.728 1222.03 437.522 1223.23 439.758V417.06H1235.71V460.116C1235.71 461.364 1235.92 462.248 1236.33 462.768C1236.75 463.236 1237.42 463.522 1238.36 463.626V474C1236.18 474.416 1234.41 474.624 1233.06 474.624C1230.92 474.624 1229.18 474.156 1227.83 473.22C1226.53 472.284 1225.72 470.984 1225.41 469.32L1225.18 467.214C1223.72 469.762 1221.75 471.66 1219.25 472.908C1216.75 474.156 1214.13 474.78 1211.37 474.78C1208.56 474.78 1205.96 474.26 1203.57 473.22C1201.23 472.128 1199.18 470.62 1197.41 468.696C1195.69 466.772 1194.37 464.51 1193.43 461.91C1192.5 459.31 1192.03 456.502 1192.03 453.486ZM1223.31 458.556V449.976C1222.79 448.572 1222.03 447.35 1221.04 446.31C1220.11 445.27 1219.02 444.438 1217.77 443.814C1216.57 443.19 1215.35 442.878 1214.1 442.878C1212.75 442.878 1211.5 443.164 1210.36 443.736C1209.27 444.308 1208.3 445.114 1207.47 446.154C1206.64 447.142 1205.99 448.286 1205.52 449.586C1205.11 450.886 1204.9 452.264 1204.9 453.72C1204.9 455.228 1205.13 456.632 1205.6 457.932C1206.12 459.18 1206.82 460.298 1207.71 461.286C1208.59 462.222 1209.63 462.95 1210.83 463.47C1212.02 463.99 1213.32 464.25 1214.73 464.25C1215.61 464.25 1216.47 464.12 1217.3 463.86C1218.13 463.548 1218.91 463.158 1219.64 462.69C1220.42 462.222 1221.12 461.624 1221.75 460.896C1222.37 460.168 1222.89 459.388 1223.31 458.556ZM1264.98 474.78C1261.5 474.78 1258.4 474.234 1255.7 473.142C1252.99 471.998 1250.68 470.464 1248.76 468.54C1246.88 466.616 1245.45 464.406 1244.47 461.91C1243.48 459.362 1242.98 456.71 1242.98 453.954C1242.98 450.002 1243.84 446.414 1245.56 443.19C1247.33 439.914 1249.85 437.288 1253.12 435.312C1256.4 433.284 1260.35 432.27 1264.98 432.27C1269.61 432.27 1273.53 433.258 1276.76 435.234C1280.03 437.21 1282.53 439.81 1284.25 443.034C1285.96 446.206 1286.82 449.664 1286.82 453.408C1286.82 454.136 1286.77 454.864 1286.66 455.592C1286.61 456.268 1286.56 456.866 1286.51 457.386H1256.24C1256.4 459.206 1256.89 460.74 1257.73 461.988C1258.61 463.236 1259.73 464.198 1261.08 464.874C1262.43 465.498 1263.86 465.81 1265.37 465.81C1267.24 465.81 1268.98 465.368 1270.6 464.484C1272.26 463.6 1273.4 462.404 1274.03 460.896L1284.64 463.86C1283.6 465.992 1282.11 467.89 1280.19 469.554C1278.32 471.166 1276.08 472.44 1273.48 473.376C1270.93 474.312 1268.1 474.78 1264.98 474.78ZM1255.93 449.742H1273.72C1273.51 448.026 1273.01 446.544 1272.23 445.296C1271.45 443.996 1270.41 443.008 1269.11 442.332C1267.81 441.604 1266.38 441.24 1264.82 441.24C1263.21 441.24 1261.76 441.604 1260.46 442.332C1259.21 443.008 1258.19 443.996 1257.41 445.296C1256.63 446.544 1256.14 448.026 1255.93 449.742ZM1308.11 461.754C1308.11 459.05 1308.86 456.684 1310.37 454.656C1311.88 452.628 1313.96 451.042 1316.61 449.898C1319.26 448.702 1322.3 448.104 1325.74 448.104C1327.4 448.104 1329.04 448.26 1330.65 448.572C1332.26 448.832 1333.67 449.222 1334.86 449.742V447.948C1334.86 445.712 1334.19 443.996 1332.83 442.8C1331.48 441.604 1329.43 441.006 1326.67 441.006C1324.38 441.006 1322.23 441.396 1320.2 442.176C1318.22 442.956 1316.12 444.074 1313.88 445.53L1310.14 437.574C1312.84 435.806 1315.65 434.48 1318.56 433.596C1321.52 432.712 1324.64 432.27 1327.92 432.27C1334.06 432.27 1338.81 433.752 1342.19 436.716C1345.63 439.628 1347.34 443.866 1347.34 449.43V460.116C1347.34 461.364 1347.52 462.248 1347.89 462.768C1348.3 463.236 1349.01 463.522 1349.99 463.626V474C1348.95 474.208 1347.97 474.364 1347.03 474.468C1346.15 474.572 1345.37 474.624 1344.69 474.624C1342.35 474.624 1340.56 474.156 1339.31 473.22C1338.11 472.284 1337.36 471.01 1337.05 469.398L1336.81 467.604C1334.99 469.944 1332.81 471.738 1330.26 472.986C1327.76 474.182 1325.14 474.78 1322.38 474.78C1319.68 474.78 1317.23 474.208 1315.05 473.064C1312.92 471.92 1311.23 470.36 1309.98 468.384C1308.73 466.408 1308.11 464.198 1308.11 461.754ZM1332.91 463.314C1333.48 462.846 1333.95 462.326 1334.32 461.754C1334.68 461.182 1334.86 460.636 1334.86 460.116V456.45C1333.82 456.034 1332.65 455.722 1331.35 455.514C1330.1 455.254 1328.93 455.124 1327.84 455.124C1325.55 455.124 1323.66 455.644 1322.15 456.684C1320.64 457.672 1319.89 458.998 1319.89 460.662C1319.89 461.598 1320.15 462.456 1320.67 463.236C1321.19 464.016 1321.89 464.64 1322.77 465.108C1323.71 465.576 1324.8 465.81 1326.05 465.81C1327.3 465.81 1328.54 465.576 1329.79 465.108C1331.04 464.64 1332.08 464.042 1332.91 463.314ZM1372.3 474.156C1369.59 474.156 1367.12 473.636 1364.89 472.596C1362.65 471.504 1360.73 470.022 1359.11 468.15C1357.55 466.226 1356.33 464.016 1355.45 461.52C1354.56 459.024 1354.12 456.346 1354.12 453.486C1354.12 450.47 1354.59 447.688 1355.53 445.14C1356.46 442.592 1357.76 440.356 1359.43 438.432C1361.14 436.456 1363.14 434.948 1365.43 433.908C1367.77 432.816 1370.35 432.27 1373.15 432.27C1376.22 432.27 1378.93 432.946 1381.27 434.298C1383.61 435.598 1385.48 437.418 1386.88 439.758V433.05H1397.72V471.192C1397.72 475.352 1396.71 478.94 1394.68 481.956C1392.71 484.972 1389.92 487.286 1386.34 488.898C1382.8 490.562 1378.69 491.394 1374.01 491.394C1369.64 491.394 1365.87 490.666 1362.7 489.21C1359.58 487.806 1356.85 485.804 1354.51 483.204L1361.22 476.418C1362.73 478.134 1364.6 479.486 1366.84 480.474C1369.07 481.514 1371.46 482.034 1374.01 482.034C1376.04 482.034 1377.91 481.67 1379.63 480.942C1381.34 480.214 1382.7 479.044 1383.68 477.432C1384.72 475.82 1385.24 473.74 1385.24 471.192V467.214C1384 469.45 1382.18 471.166 1379.78 472.362C1377.44 473.558 1374.95 474.156 1372.3 474.156ZM1376.59 464.25C1377.57 464.25 1378.48 464.12 1379.32 463.86C1380.2 463.548 1381.01 463.158 1381.73 462.69C1382.46 462.17 1383.14 461.572 1383.76 460.896C1384.39 460.168 1384.88 459.388 1385.24 458.556V449.976C1384.72 448.52 1383.97 447.272 1382.98 446.232C1381.99 445.14 1380.9 444.308 1379.71 443.736C1378.51 443.164 1377.26 442.878 1375.96 442.878C1374.66 442.878 1373.44 443.164 1372.3 443.736C1371.15 444.308 1370.16 445.14 1369.33 446.232C1368.55 447.272 1367.93 448.442 1367.46 449.742C1367.04 451.042 1366.84 452.394 1366.84 453.798C1366.84 455.306 1367.07 456.684 1367.54 457.932C1368.06 459.18 1368.76 460.298 1369.64 461.286C1370.53 462.222 1371.57 462.95 1372.76 463.47C1373.96 463.99 1375.23 464.25 1376.59 464.25ZM1425.78 474.78C1422.29 474.78 1419.17 474.208 1416.42 473.064C1413.71 471.92 1411.43 470.36 1409.55 468.384C1407.68 466.408 1406.25 464.146 1405.26 461.598C1404.33 459.05 1403.86 456.372 1403.86 453.564C1403.86 450.704 1404.33 448 1405.26 445.452C1406.25 442.904 1407.68 440.642 1409.55 438.666C1411.43 436.69 1413.71 435.13 1416.42 433.986C1419.17 432.842 1422.29 432.27 1425.78 432.27C1429.26 432.27 1432.36 432.842 1435.06 433.986C1437.76 435.13 1440.05 436.69 1441.92 438.666C1443.8 440.642 1445.23 442.904 1446.21 445.452C1447.2 448 1447.7 450.704 1447.7 453.564C1447.7 456.372 1447.2 459.05 1446.21 461.598C1445.23 464.146 1443.8 466.408 1441.92 468.384C1440.05 470.36 1437.76 471.92 1435.06 473.064C1432.36 474.208 1429.26 474.78 1425.78 474.78ZM1416.65 453.564C1416.65 455.696 1417.04 457.568 1417.82 459.18C1418.65 460.792 1419.75 462.04 1421.1 462.924C1422.45 463.808 1424.01 464.25 1425.78 464.25C1427.49 464.25 1429.03 463.808 1430.38 462.924C1431.78 461.988 1432.88 460.714 1433.66 459.102C1434.44 457.49 1434.83 455.644 1434.83 453.564C1434.83 451.432 1434.44 449.56 1433.66 447.948C1432.88 446.336 1431.78 445.088 1430.38 444.204C1429.03 443.32 1427.49 442.878 1425.78 442.878C1424.01 442.878 1422.45 443.32 1421.1 444.204C1419.75 445.088 1418.65 446.336 1417.82 447.948C1417.04 449.56 1416.65 451.432 1416.65 453.564ZM1479.86 443.736C1476.84 443.736 1474.11 444.23 1471.67 445.218C1469.22 446.154 1467.46 447.558 1466.36 449.43V474H1453.88V433.05H1465.35V441.318C1466.75 438.562 1468.57 436.404 1470.81 434.844C1473.05 433.284 1475.39 432.478 1477.83 432.426C1478.4 432.426 1478.82 432.426 1479.08 432.426C1479.39 432.426 1479.65 432.452 1479.86 432.504V443.736ZM1482.24 461.754C1482.24 459.05 1482.99 456.684 1484.5 454.656C1486.01 452.628 1488.09 451.042 1490.74 449.898C1493.39 448.702 1496.43 448.104 1499.86 448.104C1501.53 448.104 1503.17 448.26 1504.78 448.572C1506.39 448.832 1507.79 449.222 1508.99 449.742V447.948C1508.99 445.712 1508.31 443.996 1506.96 442.8C1505.61 441.604 1503.56 441.006 1500.8 441.006C1498.51 441.006 1496.35 441.396 1494.33 442.176C1492.35 442.956 1490.24 444.074 1488.01 445.53L1484.26 437.574C1486.97 435.806 1489.78 434.48 1492.69 433.596C1495.65 432.712 1498.77 432.27 1502.05 432.27C1508.18 432.27 1512.94 433.752 1516.32 436.716C1519.75 439.628 1521.47 443.866 1521.47 449.43V460.116C1521.47 461.364 1521.65 462.248 1522.02 462.768C1522.43 463.236 1523.13 463.522 1524.12 463.626V474C1523.08 474.208 1522.09 474.364 1521.16 474.468C1520.27 474.572 1519.49 474.624 1518.82 474.624C1516.48 474.624 1514.68 474.156 1513.44 473.22C1512.24 472.284 1511.49 471.01 1511.17 469.398L1510.94 467.604C1509.12 469.944 1506.94 471.738 1504.39 472.986C1501.89 474.182 1499.27 474.78 1496.51 474.78C1493.81 474.78 1491.36 474.208 1489.18 473.064C1487.05 471.92 1485.36 470.36 1484.11 468.384C1482.86 466.408 1482.24 464.198 1482.24 461.754ZM1507.04 463.314C1507.61 462.846 1508.08 462.326 1508.44 461.754C1508.81 461.182 1508.99 460.636 1508.99 460.116V456.45C1507.95 456.034 1506.78 455.722 1505.48 455.514C1504.23 455.254 1503.06 455.124 1501.97 455.124C1499.68 455.124 1497.78 455.644 1496.28 456.684C1494.77 457.672 1494.01 458.998 1494.01 460.662C1494.01 461.598 1494.27 462.456 1494.79 463.236C1495.31 464.016 1496.02 464.64 1496.9 465.108C1497.84 465.576 1498.93 465.81 1500.18 465.81C1501.42 465.81 1502.67 465.576 1503.92 465.108C1505.17 464.64 1506.21 464.042 1507.04 463.314ZM1530.44 474V461.286H1540.65V474H1530.44Z" fill="#F5F5F5"/>
<path d="M507.452 370.768V382H473.756V370.768H484.832V350.878C484.364 351.502 483.636 352.126 482.648 352.75C481.66 353.374 480.542 353.972 479.294 354.544C478.098 355.116 476.876 355.584 475.628 355.948C474.38 356.26 473.236 356.416 472.196 356.416V344.872C473.08 344.872 474.172 344.612 475.472 344.092C476.772 343.52 478.072 342.818 479.372 341.986C480.724 341.154 481.894 340.322 482.882 339.49C483.922 338.658 484.572 337.982 484.832 337.462H497.546V370.768H507.452ZM704.204 370.768V382H670.508V370.768H681.584V350.878C681.116 351.502 680.388 352.126 679.4 352.75C678.412 353.374 677.294 353.972 676.046 354.544C674.85 355.116 673.628 355.584 672.38 355.948C671.132 356.26 669.988 356.416 668.948 356.416V344.872C669.832 344.872 670.924 344.612 672.224 344.092C673.524 343.52 674.824 342.818 676.124 341.986C677.476 341.154 678.646 340.322 679.634 339.49C680.674 338.658 681.324 337.982 681.584 337.462H694.298V370.768H704.204Z" fill="#EBBF31"/>
</svg>
